<?xml version="1.0" encoding="UTF-8"?>
<svg version="1.1" xmlns="http://www.w3.org/2000/svg" width="512" height="512">
<path d="M0 0 C101.31 0 202.62 0 307 0 C307 167.31 307 334.62 307 507 C205.69 507 104.38 507 0 507 C0 494.46 0 481.92 0 469 C-33 469 -66 469 -100 469 C-100 478.9 -100 488.8 -100 499 C-93.07 499 -86.14 499 -79 499 C-79 503.29 -79 507.58 -79 512 C-96.49 512 -113.98 512 -132 512 C-132 507.71 -132 503.42 -132 499 C-125.73 499 -119.46 499 -113 499 C-113 489.1 -113 479.2 -113 469 C-123.23 469 -133.46 469 -144 469 C-144.33 471.31 -144.66 473.62 -145 476 C-145.70691875 478.43196781 -146.47192688 480.84758181 -147.28515625 483.24609375 C-147.50570175 483.90207047 -147.72624725 484.55804718 -147.95347595 485.23390198 C-148.65081199 487.30373666 -149.35649132 489.37060953 -150.0625 491.4375 C-150.54027085 492.85072317 -151.01748965 494.2641331 -151.49414062 495.67773438 C-152.65538356 499.12107211 -153.8278961 502.56026858 -155 506 C-163.91 506 -172.82 506 -182 506 C-182 493.79 -182 481.58 -182 469 C-186.95 469 -191.9 469 -197 469 C-203.9544976 464.36366826 -203.9544976 464.36366826 -205 461 C-205.26069641 458.61647034 -205.26069641 458.61647034 -205.2746582 455.94360352 C-205.28419022 454.93898575 -205.29372223 453.93436798 -205.30354309 452.89930725 C-205.30263168 451.82007492 -205.30172028 450.74084259 -205.30078125 449.62890625 C-205.30506638 448.51442612 -205.3093515 447.39994598 -205.31376648 446.25169373 C-205.31950753 443.89558593 -205.32001171 441.53946041 -205.31567383 439.18334961 C-205.312515 435.57960759 -205.33597291 431.97668733 -205.36132812 428.37304688 C-205.36360124 426.08333437 -205.36430456 423.79361966 -205.36328125 421.50390625 C-205.372491 420.42669815 -205.38170074 419.34949005 -205.39118958 418.23963928 C-205.33354015 408.91240932 -205.33354015 408.91240932 -202 405 C-199.8125 403.1875 -199.8125 403.1875 -198 402 C-198.78375 401.401875 -199.5675 400.80375 -200.375 400.1875 C-203.40181469 397.66515443 -204.88203632 396.14831198 -205.29052734 392.171875 C-205.33995129 388.44754179 -205.37133036 384.72468715 -205.375 381 C-205.41173828 379.08380859 -205.41173828 379.08380859 -205.44921875 377.12890625 C-205.48743009 364.68474576 -202.6957953 355.10479999 -194 346 C-188.65787282 341.02438051 -182.81403604 338.43581563 -176 336 C-176.44276311 326.70489392 -177.3440553 317.49290893 -178.41015625 308.25 C-178.60839493 306.52608032 -178.60839493 306.52608032 -178.81063843 304.76733398 C-179.36495002 299.97047818 -179.92340934 295.17415629 -180.49145508 290.37890625 C-185.11909945 251.16500888 -185.11909945 251.16500888 -178 242 C-172.06392066 235.84190194 -167.63045831 234.58913749 -159 232 C-143.82 232 -128.64 232 -113 232 C-113 196.69 -113 161.38 -113 125 C-128.84 125 -144.68 125 -161 125 C-159.87477171 110.37203227 -159.87477171 110.37203227 -158.984375 104.22192383 C-158.88829956 103.5502417 -158.79222412 102.87855957 -158.6932373 102.18652344 C-158.38306547 100.02605519 -158.06677649 97.86654008 -157.75 95.70703125 C-157.52934478 94.18344574 -157.30897253 92.65981922 -157.08886719 91.13615417 C-156.63101346 87.97341776 -156.17016855 84.81113684 -155.70703125 81.64916992 C-155.11320348 77.59360548 -154.52646907 73.53705163 -153.9418335 69.48015308 C-153.48974885 66.34775833 -153.03429012 63.21586164 -152.57775879 60.08411217 C-152.35988902 58.58709554 -152.14300486 57.08993513 -151.92712402 55.59263039 C-151.62668316 53.51281972 -151.3217815 51.43371223 -151.015625 49.35473633 C-150.84321289 48.17261063 -150.67080078 46.99048492 -150.49316406 45.77253723 C-150 43 -150 43 -149 41 C-138.06503529 40.97687703 -127.13007634 40.95908515 -116.1950922 40.94818783 C-111.11808982 40.9429589 -106.04110411 40.93586108 -100.96411133 40.92456055 C-96.06879448 40.91373201 -91.17349371 40.90772324 -86.27816582 40.90512276 C-84.40617049 40.90326845 -82.53417609 40.89964772 -80.66218758 40.89426994 C-78.04959301 40.88705996 -75.43706573 40.88600904 -72.82446289 40.88647461 C-72.04259613 40.88287933 -71.26072937 40.87928406 -70.45516968 40.87557983 C-65.11405216 40.88594784 -65.11405216 40.88594784 -64 42 C-63.57707317 44.32624754 -63.21034411 46.63944533 -62.87670898 48.97900391 C-62.76927368 49.70917725 -62.66183838 50.43935059 -62.55114746 51.19165039 C-62.19518036 53.61935079 -61.84542985 56.04789969 -61.49609375 58.4765625 C-61.25112358 60.16233512 -61.00592709 61.84807486 -60.76051331 63.53378296 C-60.24584619 67.0759996 -59.73430699 70.61865099 -59.22485352 74.16162109 C-58.57314075 78.69180477 -57.91322824 83.22074846 -57.25085354 87.74938393 C-56.7420106 91.23539661 -56.23785863 94.72207567 -55.73506355 98.2089653 C-55.49376306 99.87805282 -55.25095539 101.54692319 -55.00658989 103.21556473 C-54.66422642 105.55792347 -54.32827399 107.90111861 -53.99389648 110.24462891 C-53.89260941 110.92854706 -53.79132233 111.61246521 -53.68696594 112.31710815 C-53.07579585 116.66157023 -53 120.5398352 -53 125 C-68.51 125 -84.02 125 -100 125 C-100 160.31 -100 195.62 -100 232 C-67 232 -34 232 0 232 C0 155.44 0 78.88 0 0 Z " fill="#A77140" transform="translate(205,0)"/>
<path d="M0 0 C10.93496471 -0.02312297 21.86992366 -0.04091485 32.8049078 -0.05181217 C37.88191018 -0.0570411 42.95889589 -0.06413892 48.03588867 -0.07543945 C52.93120552 -0.08626799 57.82650629 -0.09227676 62.72183418 -0.09487724 C64.59382951 -0.09673155 66.46582391 -0.10035228 68.33781242 -0.10573006 C70.95040699 -0.11294004 73.56293427 -0.11399096 76.17553711 -0.11352539 C76.95740387 -0.11712067 77.73927063 -0.12071594 78.54483032 -0.12442017 C83.88594784 -0.11405216 83.88594784 -0.11405216 85 1 C85.42292683 3.32624754 85.78965589 5.63944533 86.12329102 7.97900391 C86.23072632 8.70917725 86.33816162 9.43935059 86.44885254 10.19165039 C86.80481964 12.61935079 87.15457015 15.04789969 87.50390625 17.4765625 C87.74887642 19.16233512 87.99407291 20.84807486 88.23948669 22.53378296 C88.75415381 26.0759996 89.26569301 29.61865099 89.77514648 33.16162109 C90.42685925 37.69180477 91.08677176 42.22074846 91.74914646 46.74938393 C92.2579894 50.23539661 92.76214137 53.72207567 93.26493645 57.2089653 C93.50623694 58.87805282 93.74904461 60.54692319 93.99341011 62.21556473 C94.33577358 64.55792347 94.67172601 66.90111861 95.00610352 69.24462891 C95.10739059 69.92854706 95.20867767 70.61246521 95.31303406 71.31710815 C95.92420415 75.66157023 96 79.5398352 96 84 C80.49 84 64.98 84 49 84 C49 119.31 49 154.62 49 191 C66.90894531 190.94779297 66.90894531 190.94779297 85.1796875 190.89453125 C92.74479362 190.87920214 100.30988846 190.86463598 107.875 190.85351562 C119.8818751 190.83572421 131.88868698 190.81482409 143.89550781 190.77368164 C152.64054288 190.74373034 161.3855266 190.72441339 170.13061154 190.71773452 C174.75879916 190.71383196 179.38683989 190.7046938 184.01498032 190.68280983 C188.37666864 190.66235407 192.73815039 190.65618448 197.09988213 190.66067696 C198.69535001 190.65985581 200.29082524 190.65394449 201.88625145 190.64238358 C214.45819522 190.55579955 225.11543968 191.59714892 235 200 C242.60455818 208.54832196 241.54536841 218.23860695 241 229 C240.19595611 239.13657905 238.99210066 249.23566835 237.81335449 259.33416748 C237.47518976 262.25382091 237.1475609 265.17461657 236.82019138 268.09549713 C236.4273526 271.59540135 236.02829291 275.09458805 235.62890625 278.59375 C235.4069735 280.54819031 235.4069735 280.54819031 235.18055725 282.54211426 C235.04048752 283.7418689 234.90041779 284.94162354 234.75610352 286.17773438 C234.63396988 287.23295288 234.51183624 288.28817139 234.38600159 289.37536621 C234 292 234 292 233 295 C233.70511719 295.11214844 234.41023438 295.22429687 235.13671875 295.33984375 C245.52310009 297.73452103 254.12241949 303.88241674 259.78515625 312.81640625 C264.80127762 321.7220969 265.20748543 328.28183139 265.25 338.4375 C265.2809375 340.27924805 265.2809375 340.27924805 265.3125 342.15820312 C265.31765625 343.34220703 265.3228125 344.52621094 265.328125 345.74609375 C265.3374707 346.82560303 265.34681641 347.9051123 265.35644531 349.01733398 C264.80659156 353.61840477 262.53850016 357.05124987 259 360 C255.99942269 361.00019244 254.01614492 361.12814469 250.88152504 361.13422108 C249.81619974 361.13867892 248.75087444 361.14313676 247.65326655 361.14772969 C246.47867644 361.14754533 245.30408633 361.14736097 244.09390259 361.14717102 C242.84938367 361.15084771 241.60486476 361.1545244 240.32263315 361.1583125 C236.86157097 361.16744251 233.40055622 361.1720497 229.9394865 361.17470181 C226.2093399 361.17860394 222.47920705 361.1881822 218.74906921 361.19691467 C209.7387283 361.21667945 200.72838626 361.22674434 191.71802908 361.23564246 C187.47686824 361.24002448 183.23570865 361.24539143 178.9945488 361.25063133 C164.90019553 361.267642 150.80584305 361.28213755 136.71148109 361.28938007 C133.0537478 361.29129002 129.39601452 361.29321034 125.73828125 361.29516602 C124.8291518 361.29564976 123.92002235 361.2961335 122.98334353 361.2966319 C108.24642621 361.30493742 93.50958992 361.33028384 78.77270801 361.36274669 C63.6496313 361.39578933 48.52659581 361.41382621 33.40348279 361.41702431 C24.90950773 361.41919178 16.41565091 361.42797509 7.92171097 361.45348549 C0.69016158 361.47515418 -6.54124085 361.4832618 -13.77281903 361.47351871 C-17.46360985 361.46896309 -21.1540972 361.4709329 -24.84484673 361.49028015 C-28.8434249 361.51106049 -32.84132524 361.50096202 -36.8399353 361.48774719 C-38.5951283 361.50420106 -38.5951283 361.50420106 -40.38577974 361.52098733 C-48.22060117 361.45818752 -48.22060117 361.45818752 -52.13500404 359.1570158 C-57.30126697 353.18182282 -56.36750833 347.60404434 -56.375 340 C-56.41173828 338.08380859 -56.41173828 338.08380859 -56.44921875 336.12890625 C-56.48743009 323.68474576 -53.6957953 314.10479999 -45 305 C-39.65787282 300.02438051 -33.81403604 297.43581563 -27 295 C-27.44276311 285.70489392 -28.3440553 276.49290893 -29.41015625 267.25 C-29.60839493 265.52608032 -29.60839493 265.52608032 -29.81063843 263.76733398 C-30.36495002 258.97047818 -30.92340934 254.17415629 -31.49145508 249.37890625 C-36.11909945 210.16500888 -36.11909945 210.16500888 -29 201 C-23.06392066 194.84190194 -18.63045831 193.58913749 -10 191 C5.18 191 20.36 191 36 191 C36 155.69 36 120.38 36 84 C20.16 84 4.32 84 -12 84 C-10.87477171 69.37203227 -10.87477171 69.37203227 -9.984375 63.22192383 C-9.84026184 62.21440063 -9.84026184 62.21440063 -9.6932373 61.18652344 C-9.38306547 59.02605519 -9.06677649 56.86654008 -8.75 54.70703125 C-8.52934478 53.18344574 -8.30897253 51.65981922 -8.08886719 50.13615417 C-7.63101346 46.97341776 -7.17016855 43.81113684 -6.70703125 40.64916992 C-6.11320348 36.59360548 -5.52646907 32.53705163 -4.9418335 28.48015308 C-4.48974885 25.34775833 -4.03429012 22.21586164 -3.57775879 19.08411217 C-3.35988902 17.58709554 -3.14300486 16.08993513 -2.92712402 14.59263039 C-2.62668316 12.51281972 -2.3217815 10.43371223 -2.015625 8.35473633 C-1.84321289 7.17261063 -1.67080078 5.99048492 -1.49316406 4.77253723 C-1 2 -1 2 0 0 Z " fill="#B7BBB9" transform="translate(56,41)"/>
<path d="M0 0 C48.51 0 97.02 0 147 0 C147 89.43 147 178.86 147 271 C98.49 271 49.98 271 0 271 C0 181.57 0 92.14 0 0 Z " fill="#BA834B" transform="translate(365,51)"/>
<path d="M0 0 C48.84 0 97.68 0 148 0 C148 89.43 148 178.86 148 271 C127.54 271 107.08 271 86 271 C87.12041591 253.07334537 87.12041591 253.07334537 87.97265625 246.23046875 C88.15308705 244.73876807 88.33283358 243.24698449 88.51196289 241.75512695 C88.60269073 241.00768219 88.69341858 240.26023743 88.78689575 239.49014282 C93.27764697 215.28506797 93.27764697 215.28506797 87.671875 192.72265625 C81.43202143 186.29327442 75.79449228 184.63834768 67 182 C33.835 181.505 33.835 181.505 0 181 C0 121.27 0 61.54 0 0 Z " fill="#BA834B" transform="translate(205,51)"/>
<path d="M0 0 C-0.33 0.66 -0.66 1.32 -1 2 C-0.401875 2.2475 0.19625 2.495 0.8125 2.75 C3.38749898 4.22142799 4.43834323 5.48599052 6 8 C6.39440918 10.37680054 6.39440918 10.37680054 6.41992188 13.04052734 C6.43583374 14.04191742 6.45174561 15.0433075 6.46813965 16.07504272 C6.46844177 17.68918564 6.46844177 17.68918564 6.46875 19.3359375 C6.47636353 20.44804596 6.48397705 21.56015442 6.49182129 22.70596313 C6.50262389 25.05785884 6.50547476 27.40980253 6.50097656 29.76171875 C6.50000541 33.35498403 6.54160434 36.94610617 6.5859375 40.5390625 C6.59114541 42.82551639 6.59383268 45.11197769 6.59375 47.3984375 C6.61014526 48.47048431 6.62654053 49.54253113 6.64343262 50.64706421 C6.56652069 58.97594375 6.56652069 58.97594375 3.71289062 62.60009766 C-1.20840481 66.95361944 -4.87373492 67.28796294 -11.33953857 67.24050903 C-12.18825161 67.24221788 -13.03696465 67.24392673 -13.91139627 67.24568737 C-16.75970121 67.2489857 -19.60777139 67.23797288 -22.45605469 67.22705078 C-24.49602757 67.22648674 -26.53600086 67.22680308 -28.57597351 67.22793579 C-34.11898373 67.22851059 -39.66190773 67.21673571 -45.20489788 67.20278788 C-50.99582675 67.19030168 -56.7867575 67.18911168 -62.57769775 67.18673706 C-73.54590872 67.18051608 -84.51407991 67.1640969 -95.48227334 67.14403808 C-107.96821731 67.1216983 -120.45416316 67.11069049 -132.94012213 67.10064721 C-158.6267709 67.07973122 -184.31338155 67.04414127 -210 67 C-210 76.9 -210 86.8 -210 97 C-203.07 97 -196.14 97 -189 97 C-189 101.29 -189 105.58 -189 110 C-206.49 110 -223.98 110 -242 110 C-242 105.71 -242 101.42 -242 97 C-235.73 97 -229.46 97 -223 97 C-223 87.1 -223 77.2 -223 67 C-233.23 67 -243.46 67 -254 67 C-254.33 69.31 -254.66 71.62 -255 74 C-255.70691875 76.43196781 -256.47192688 78.84758181 -257.28515625 81.24609375 C-257.50570175 81.90207047 -257.72624725 82.55804718 -257.95347595 83.23390198 C-258.65081199 85.30373666 -259.35649132 87.37060953 -260.0625 89.4375 C-260.54027085 90.85072317 -261.01748965 92.2641331 -261.49414062 93.67773438 C-262.65538356 97.12107211 -263.8278961 100.56026858 -265 104 C-273.91 104 -282.82 104 -292 104 C-292 91.79 -292 79.58 -292 67 C-296.95 67 -301.9 67 -307 67 C-313.9544976 62.36366826 -313.9544976 62.36366826 -315 59 C-315.26069641 56.61647034 -315.26069641 56.61647034 -315.2746582 53.94360352 C-315.28419022 52.93898575 -315.29372223 51.93436798 -315.30354309 50.89930725 C-315.30263168 49.82007492 -315.30172028 48.74084259 -315.30078125 47.62890625 C-315.30506638 46.51442612 -315.3093515 45.39994598 -315.31376648 44.25169373 C-315.31950753 41.89558593 -315.32001171 39.53946041 -315.31567383 37.18334961 C-315.312515 33.57960759 -315.33597291 29.97668733 -315.36132812 26.37304688 C-315.36360124 24.08333437 -315.36430456 21.79361966 -315.36328125 19.50390625 C-315.372491 18.42669815 -315.38170074 17.34949005 -315.39118958 16.23963928 C-315.33200918 6.66471013 -315.33200918 6.66471013 -312 3 C-308.4231199 0.48869613 -306.00154093 -0.37599733 -301.64546013 -0.38755417 C-300.57840273 -0.39762741 -299.51134533 -0.40770065 -298.41195285 -0.41807914 C-296.66259628 -0.41183095 -296.66259628 -0.41183095 -294.87789917 -0.40545654 C-293.01256615 -0.41648513 -293.01256615 -0.41648513 -291.10954964 -0.42773652 C-287.66041263 -0.44510396 -284.21172947 -0.44907775 -280.76258016 -0.4473989 C-277.04201672 -0.4488323 -273.32153468 -0.46747805 -269.60101318 -0.48399353 C-262.3141401 -0.5136265 -255.02731876 -0.52739164 -247.74039374 -0.53589597 C-239.25850851 -0.54642383 -230.77669618 -0.57294961 -222.29485108 -0.60024002 C-207.16484638 -0.64840567 -192.03484283 -0.68250774 -176.90478516 -0.70849609 C-162.21464534 -0.73374537 -147.52456586 -0.76809496 -132.83447266 -0.81298828 C-131.92943583 -0.81575251 -131.024399 -0.81851674 -130.09193681 -0.82136473 C-128.26878809 -0.8269391 -126.44563937 -0.83251388 -124.62249065 -0.83808906 C-123.7232 -0.84083711 -122.82390936 -0.84358515 -121.89736748 -0.84641647 C-121.00038401 -0.84916031 -120.10340054 -0.85190415 -119.17923575 -0.85473113 C-105.19040048 -0.89718817 -91.20154474 -0.93192956 -77.21268602 -0.96563159 C-72.13812868 -0.97792734 -67.0635752 -0.99124544 -61.98902236 -1.00527182 C-53.94179373 -1.02744657 -45.89457248 -1.04627194 -37.84732161 -1.05821076 C-34.16901964 -1.06372083 -30.49073927 -1.0708053 -26.81245041 -1.08220482 C-22.83101273 -1.0944658 -18.84958905 -1.09890743 -14.86813354 -1.10247803 C-13.11208481 -1.10961417 -13.11208481 -1.10961417 -11.32056034 -1.11689448 C-10.25871843 -1.11653673 -9.19687652 -1.11617898 -8.10285759 -1.11581039 C-7.18322727 -1.11760166 -6.26359695 -1.11939292 -5.31609905 -1.12123847 C-3 -1 -3 -1 0 0 Z " fill="#BA844C" transform="translate(315,402)"/>
<path d="M0 0 C1.05983422 -0.00482883 2.11966843 -0.00965766 3.21161884 -0.01463282 C6.73906774 -0.02584381 10.26578203 -0.00862946 13.79319763 0.00863647 C16.33176367 0.00648914 18.87032874 0.00260926 21.40888977 -0.00286865 C27.57356041 -0.0115407 33.73796131 -0.00171574 39.90260262 0.01683195 C47.08925121 0.03767186 54.27585402 0.03745767 61.46252715 0.03648679 C74.28910458 0.03548703 87.11558205 0.05376874 99.94212341 0.08285522 C112.3744336 0.11103292 124.80665585 0.12519637 137.23899841 0.12387085 C138.0049144 0.12379094 138.7708304 0.12371102 139.55995596 0.12362869 C140.32457811 0.12354798 141.08920025 0.12346727 141.87699276 0.12338412 C156.05213052 0.12200263 170.22723108 0.13379406 184.40235676 0.15169055 C189.40614354 0.15771008 194.40992346 0.1598481 199.41371346 0.16075516 C206.15330794 0.16226594 212.89279778 0.17499758 219.63236618 0.19508743 C222.10386402 0.20092065 224.57537246 0.20339157 227.04687691 0.20223236 C230.42392672 0.20124795 233.80072033 0.21259174 237.17773438 0.22705078 C238.15245321 0.22395358 239.12717205 0.22085637 240.13142782 0.21766531 C252.29370254 0.30348296 261.67558421 3.34384169 270.77537537 11.68197632 C279.96918554 21.44222977 281.2218734 31.15169436 281.27537537 43.93197632 C281.30631287 45.77372437 281.30631287 45.77372437 281.33787537 47.65267944 C281.34303162 48.83668335 281.34818787 50.02068726 281.35350037 51.24057007 C281.36284607 52.32007935 281.37219177 53.39958862 281.38182068 54.5118103 C280.83196692 59.11288109 278.56387553 62.54572619 275.02537537 65.49447632 C272.02479806 66.49466875 270.04152029 66.62262101 266.90690041 66.6286974 C265.8415751 66.63315524 264.7762498 66.63761308 263.67864192 66.64220601 C262.50405181 66.64202165 261.3294617 66.64183729 260.11927795 66.64164734 C258.87475904 66.64532403 257.63024012 66.64900072 256.34800851 66.65278882 C252.88694633 66.66191882 249.42593159 66.66652602 245.96486187 66.66917813 C242.23471527 66.67308026 238.50458241 66.68265852 234.77444458 66.69139099 C225.76410366 66.71115577 216.75376162 66.72122066 207.74340445 66.73011878 C203.50224361 66.7345008 199.26108402 66.73986775 195.01992416 66.74510765 C180.9255709 66.76211832 166.83121842 66.77661387 152.73685646 66.78385639 C149.07912317 66.78576633 145.42138988 66.78768666 141.76365662 66.78964233 C140.85452717 66.79012607 139.94539772 66.79060981 139.00871889 66.79110821 C124.27180157 66.79941373 109.53496529 66.82476016 94.79808338 66.85722301 C79.67500666 66.89026565 64.55197118 66.90830253 49.42885816 66.91150063 C40.9348831 66.9136681 32.44102627 66.92245141 23.94708633 66.94796181 C16.71553694 66.9696305 9.48413451 66.97773812 2.25255634 66.96799503 C-1.43823449 66.96343941 -5.12872184 66.96540921 -8.81947136 66.98475647 C-12.81804954 67.00553681 -16.81594988 66.99543834 -20.81455994 66.98222351 C-22.56975293 66.99867738 -22.56975293 66.99867738 -24.36040437 67.01546365 C-32.19522581 66.95266384 -32.19522581 66.95266384 -36.10962868 64.65149212 C-41.2758916 58.67629913 -40.34213296 53.09852065 -40.34962463 45.49447632 C-40.38636292 43.57828491 -40.38636292 43.57828491 -40.42384338 41.62338257 C-40.46205473 29.17922208 -37.67041994 19.59927631 -28.97462463 10.49447632 C-20.58105831 2.67676798 -11.2886559 -0.11941311 0 0 Z " fill="#C6CCC8" transform="translate(39.97462463378906,335.5055236816406)"/>
<path d="M0 0 C101.31 0 202.62 0 307 0 C307 16.83 307 33.66 307 51 C205.69 51 104.38 51 0 51 C0 34.17 0 17.34 0 0 Z " fill="#A87140" transform="translate(205,0)"/>
<path d="M0 0 C3.96 0 7.92 0 12 0 C12 89.43 12 178.86 12 271 C8.04 271 4.08 271 0 271 C0 181.57 0 92.14 0 0 Z " fill="#915D33" transform="translate(353,51)"/>
<path d="M0 0 C62.7 0 125.4 0 190 0 C190 3.96 190 7.92 190 12 C127.3 12 64.6 12 0 12 C0 8.04 0 4.08 0 0 Z " fill="#915D33" transform="translate(322,412)"/>
<path d="M0 0 C4.29 0 8.58 0 13 0 C13 35.64 13 71.28 13 108 C8.71 108 4.42 108 0 108 C0 72.36 0 36.72 0 0 Z " fill="#915C32" transform="translate(92,124)"/>
<path d="M0 0 C12.54 0 25.08 0 38 0 C37.24794763 5.26436659 36.38844735 9.31002237 34.71484375 14.24609375 C34.49429825 14.90207047 34.27375275 15.55804718 34.04652405 16.23390198 C33.34918801 18.30373666 32.64350868 20.37060953 31.9375 22.4375 C31.45972915 23.85072317 30.98251035 25.2641331 30.50585938 26.67773438 C29.34461644 30.12107211 28.1721039 33.56026858 27 37 C18.09 37 9.18 37 0 37 C0 24.79 0 12.58 0 0 Z " fill="#915C33" transform="translate(23,469)"/>
<path d="M0 0 C12.21 0 24.42 0 37 0 C37 11.88 37 23.76 37 36 C28.42 36 19.84 36 11 36 C9.42923936 31.35656637 7.8612624 26.71238154 6.30029297 22.06567383 C5.76838764 20.4850485 5.23486836 18.90496535 4.69970703 17.32543945 C3.93097263 15.05560495 3.16805428 12.78388706 2.40625 10.51171875 C2.16563843 9.80536789 1.92502686 9.09901703 1.67712402 8.3712616 C0.70411908 5.45324788 0 3.0986998 0 0 Z " fill="#915D33" transform="translate(265,469)"/>
<path d="M0 0 C4.29 0 8.58 0 13 0 C13 9.9 13 19.8 13 30 C19.93 30 26.86 30 34 30 C34 34.29 34 38.58 34 43 C16.51 43 -0.98 43 -19 43 C-19 38.71 -19 34.42 -19 30 C-12.73 30 -6.46 30 0 30 C0 20.1 0 10.2 0 0 Z " fill="#915C32" transform="translate(92,469)"/>
<path d="M0 0 C22.77 0 45.54 0 69 0 C69 3.96 69 7.92 69 12 C45.9 12 22.8 12 -1 12 C-0.67 8.04 -0.34 4.08 0 0 Z " fill="#915D33" transform="translate(322,450)"/>
<path d="M0 0 C22.44 0 44.88 0 68 0 C68 3.96 68 7.92 68 12 C45.56 12 23.12 12 0 12 C0 8.04 0 4.08 0 0 Z " fill="#915D33" transform="translate(322,347)"/>
<path d="M0 0 C3.96 0 7.92 0 12 0 C12 14.52 12 29.04 12 44 C8.04 44 4.08 44 0 44 C0 29.48 0 14.96 0 0 Z " fill="#915D33" transform="translate(393,151)"/>
<path d="M0 0 C3.63 0 7.26 0 11 0 C11 14.52 11 29.04 11 44 C7.37 44 3.74 44 0 44 C0 29.48 0 14.96 0 0 Z " fill="#915D33" transform="translate(316,151)"/>
</svg>
